<?xml version="1.0"?><svg width="793.7007874015749" height="1122.5196850393702" xmlns="http://www.w3.org/2000/svg">
 <title>Danger Sign</title>

 <g>
  <title>Layer 1</title>
  <g id="layer1">
   <g id="g2119">
    <path fill="none" fill-rule="evenodd" stroke="#000000" stroke-width="12.5" stroke-linecap="round" stroke-miterlimit="4" id="path1825" d="m356.193817,164.168747c-8.766418,0.431015 -16.706818,5.281174 -21.098083,12.880661c-109.06134,188.916412 -218.122681,377.832794 -327.18401,566.749237c-4.618268,7.994324 -4.614268,17.839905 0,25.836975c4.614256,7.997009 13.126057,12.928528 22.358414,12.93103c217.215244,0.042053 434.430454,0.084045 651.645695,0.126038c9.210693,-0.005066 17.71344,-4.912231 22.333191,-12.880615c4.619751,-7.968445 4.647766,-17.790649 0.075623,-25.78656c-108.15387,-188.958374 -216.30777,-377.91684 -324.46167,-566.875275c-4.825439,-8.43602 -13.961945,-13.451904 -23.669159,-12.981491z"/>
    <path fill="#ffcc00" fill-rule="evenodd" stroke="#000000" stroke-width="29.443962" stroke-linecap="round" stroke-linejoin="round" stroke-miterlimit="4" id="path1937" d="m357.454132,191.039169c-108.7565,188.388412 -217.520035,376.772781 -326.27655,565.161209c216.61026,0.041931 433.220551,0.084167 649.83078,0.126038c-107.854187,-188.434814 -215.699158,-376.850983 -323.55423,-565.287247z"/>
   </g>
  </g>
  <g transform="matrix(0.899557,0.000000,0.000000,0.899557,250.3955,35.81094)" id="g1190"/>
  <g transform="matrix(5.07674 0 0 5.07674 -39.2591 12.5915)" id="g1545">
   <path fill="#000000" id="path1546" d="m75.197914,134.569275l-4.234001,-15.397003l4.234001,2.695l4.2341,-28.099098l-19.245701,8.853096l13.087101,-44.265095l12.3172,0.769798l-16.166397,33.487499l21.555099,-10.777603l-11.547302,40.8004l5.773697,-1.923996l-10.007797,13.857002z"/>
  </g>
 </g>
</svg>